<?xml version="1.0" encoding="UTF-8" standalone="no"?>
<!DOCTYPE svg PUBLIC "-//W3C//DTD SVG 1.1//EN"
 "http://www.w3.org/Graphics/SVG/1.1/DTD/svg11.dtd">
<!-- Generated by graphviz version 2.38.0 (20140413.2041)
 -->
<!-- Title: %3 Pages: 1 -->
<svg width="336pt" height="965pt"
 viewBox="0.00 0.00 336.20 964.63" xmlns="http://www.w3.org/2000/svg" xmlns:xlink="http://www.w3.org/1999/xlink">
<g id="graph0" class="graph" transform="scale(1 1) rotate(0) translate(4 960.627)">
<title>%3</title>
<polygon fill="white" stroke="none" points="-4,4 -4,-960.627 332.205,-960.627 332.205,4 -4,4"/>
<!-- I(+,+)
V(max,+)
O(max,+) -->
<g id="node1" class="node"><title>I(+,+)
V(max,+)
O(max,+)</title>
<ellipse fill="none" stroke="black" cx="50.2046" cy="-919.15" rx="50.41" ry="37.4533"/>
<text text-anchor="middle" x="50.2046" y="-930.45" font-family="Times,serif" font-size="14.00">I(+,+)</text>
<text text-anchor="middle" x="50.2046" y="-915.45" font-family="Times,serif" font-size="14.00">V(max,+)</text>
<text text-anchor="middle" x="50.2046" y="-900.45" font-family="Times,serif" font-size="14.00">O(max,+)</text>
</g>
<!-- I(+,0)
V(max,+)
O(max,+) -->
<g id="node2" class="node"><title>I(+,0)
V(max,+)
O(max,+)</title>
<ellipse fill="none" stroke="black" cx="50.2046" cy="-793.197" rx="50.41" ry="37.4533"/>
<text text-anchor="middle" x="50.2046" y="-804.497" font-family="Times,serif" font-size="14.00">I(+,0)</text>
<text text-anchor="middle" x="50.2046" y="-789.497" font-family="Times,serif" font-size="14.00">V(max,+)</text>
<text text-anchor="middle" x="50.2046" y="-774.497" font-family="Times,serif" font-size="14.00">O(max,+)</text>
</g>
<!-- I(+,+)
V(max,+)
O(max,+)&#45;&gt;I(+,0)
V(max,+)
O(max,+) -->
<g id="edge1" class="edge"><title>I(+,+)
V(max,+)
O(max,+)&#45;&gt;I(+,0)
V(max,+)
O(max,+)</title>
<path fill="none" stroke="black" d="M50.2046,-881.63C50.2046,-868.883 50.2046,-854.397 50.2046,-840.934"/>
<polygon fill="black" stroke="black" points="53.7047,-840.884 50.2046,-830.884 46.7047,-840.884 53.7047,-840.884"/>
<text text-anchor="middle" x="84.7046" y="-852.473" font-family="Times,serif" font-size="14.00"> &#45; der inflow</text>
</g>
<!-- I(+,&#45;)
V(max,+)
O(max,+) -->
<g id="node3" class="node"><title>I(+,&#45;)
V(max,+)
O(max,+)</title>
<ellipse fill="none" stroke="black" cx="50.2046" cy="-667.243" rx="50.41" ry="37.4533"/>
<text text-anchor="middle" x="50.2046" y="-678.543" font-family="Times,serif" font-size="14.00">I(+,&#45;)</text>
<text text-anchor="middle" x="50.2046" y="-663.543" font-family="Times,serif" font-size="14.00">V(max,+)</text>
<text text-anchor="middle" x="50.2046" y="-648.543" font-family="Times,serif" font-size="14.00">O(max,+)</text>
</g>
<!-- I(+,0)
V(max,+)
O(max,+)&#45;&gt;I(+,&#45;)
V(max,+)
O(max,+) -->
<g id="edge2" class="edge"><title>I(+,0)
V(max,+)
O(max,+)&#45;&gt;I(+,&#45;)
V(max,+)
O(max,+)</title>
<path fill="none" stroke="black" d="M50.2046,-755.677C50.2046,-742.93 50.2046,-728.444 50.2046,-714.98"/>
<polygon fill="black" stroke="black" points="53.7047,-714.93 50.2046,-704.93 46.7047,-714.93 53.7047,-714.93"/>
<text text-anchor="middle" x="84.7046" y="-726.52" font-family="Times,serif" font-size="14.00"> &#45; der inflow</text>
</g>
<!-- I(+,&#45;)
V(max,0)
O(max,0) -->
<g id="node4" class="node"><title>I(+,&#45;)
V(max,0)
O(max,0)</title>
<ellipse fill="none" stroke="black" cx="50.2046" cy="-541.29" rx="49.4949" ry="37.4533"/>
<text text-anchor="middle" x="50.2046" y="-552.59" font-family="Times,serif" font-size="14.00">I(+,&#45;)</text>
<text text-anchor="middle" x="50.2046" y="-537.59" font-family="Times,serif" font-size="14.00">V(max,0)</text>
<text text-anchor="middle" x="50.2046" y="-522.59" font-family="Times,serif" font-size="14.00">O(max,0)</text>
</g>
<!-- I(+,&#45;)
V(max,+)
O(max,+)&#45;&gt;I(+,&#45;)
V(max,0)
O(max,0) -->
<g id="edge3" class="edge"><title>I(+,&#45;)
V(max,+)
O(max,+)&#45;&gt;I(+,&#45;)
V(max,0)
O(max,0)</title>
<path fill="none" stroke="black" d="M50.2046,-629.724C50.2046,-616.976 50.2046,-602.49 50.2046,-589.027"/>
<polygon fill="black" stroke="black" points="53.7047,-588.977 50.2046,-578.977 46.7047,-588.977 53.7047,-588.977"/>
<text text-anchor="middle" x="126.705" y="-600.567" font-family="Times,serif" font-size="14.00"> &#45; der Volume &#45; der outflow</text>
</g>
<!-- I(+,&#45;)
V(max,&#45;)
O(max,&#45;) -->
<g id="node5" class="node"><title>I(+,&#45;)
V(max,&#45;)
O(max,&#45;)</title>
<ellipse fill="none" stroke="black" cx="50.2046" cy="-415.337" rx="48.1667" ry="37.4533"/>
<text text-anchor="middle" x="50.2046" y="-426.637" font-family="Times,serif" font-size="14.00">I(+,&#45;)</text>
<text text-anchor="middle" x="50.2046" y="-411.637" font-family="Times,serif" font-size="14.00">V(max,&#45;)</text>
<text text-anchor="middle" x="50.2046" y="-396.637" font-family="Times,serif" font-size="14.00">O(max,&#45;)</text>
</g>
<!-- I(+,&#45;)
V(max,0)
O(max,0)&#45;&gt;I(+,&#45;)
V(max,&#45;)
O(max,&#45;) -->
<g id="edge4" class="edge"><title>I(+,&#45;)
V(max,0)
O(max,0)&#45;&gt;I(+,&#45;)
V(max,&#45;)
O(max,&#45;)</title>
<path fill="none" stroke="black" d="M50.2046,-503.77C50.2046,-491.023 50.2046,-476.537 50.2046,-463.074"/>
<polygon fill="black" stroke="black" points="53.7047,-463.024 50.2046,-453.024 46.7047,-463.024 53.7047,-463.024"/>
<text text-anchor="middle" x="126.705" y="-474.613" font-family="Times,serif" font-size="14.00"> &#45; der Volume &#45; der outflow</text>
</g>
<!-- I(+,&#45;)
V(+,&#45;)
O(+,&#45;) -->
<g id="node6" class="node"><title>I(+,&#45;)
V(+,&#45;)
O(+,&#45;)</title>
<ellipse fill="none" stroke="black" cx="50.2046" cy="-289.383" rx="36.5405" ry="37.4533"/>
<text text-anchor="middle" x="50.2046" y="-300.683" font-family="Times,serif" font-size="14.00">I(+,&#45;)</text>
<text text-anchor="middle" x="50.2046" y="-285.683" font-family="Times,serif" font-size="14.00">V(+,&#45;)</text>
<text text-anchor="middle" x="50.2046" y="-270.683" font-family="Times,serif" font-size="14.00">O(+,&#45;)</text>
</g>
<!-- I(+,&#45;)
V(max,&#45;)
O(max,&#45;)&#45;&gt;I(+,&#45;)
V(+,&#45;)
O(+,&#45;) -->
<g id="edge5" class="edge"><title>I(+,&#45;)
V(max,&#45;)
O(max,&#45;)&#45;&gt;I(+,&#45;)
V(+,&#45;)
O(+,&#45;)</title>
<path fill="none" stroke="black" d="M50.2046,-377.817C50.2046,-365.07 50.2046,-350.584 50.2046,-337.121"/>
<polygon fill="black" stroke="black" points="53.7047,-337.07 50.2046,-327.07 46.7047,-337.07 53.7047,-337.07"/>
<text text-anchor="middle" x="107.705" y="-348.66" font-family="Times,serif" font-size="14.00"> &#45; Volume &#160;&#45; outflow</text>
</g>
<!-- I(0,0)
V(+,&#45;)
O(+,&#45;) -->
<g id="node7" class="node"><title>I(0,0)
V(+,&#45;)
O(+,&#45;)</title>
<ellipse fill="none" stroke="black" cx="50.2046" cy="-163.43" rx="36.5405" ry="37.4533"/>
<text text-anchor="middle" x="50.2046" y="-174.73" font-family="Times,serif" font-size="14.00">I(0,0)</text>
<text text-anchor="middle" x="50.2046" y="-159.73" font-family="Times,serif" font-size="14.00">V(+,&#45;)</text>
<text text-anchor="middle" x="50.2046" y="-144.73" font-family="Times,serif" font-size="14.00">O(+,&#45;)</text>
</g>
<!-- I(+,&#45;)
V(+,&#45;)
O(+,&#45;)&#45;&gt;I(0,0)
V(+,&#45;)
O(+,&#45;) -->
<g id="edge6" class="edge"><title>I(+,&#45;)
V(+,&#45;)
O(+,&#45;)&#45;&gt;I(0,0)
V(+,&#45;)
O(+,&#45;)</title>
<path fill="none" stroke="black" d="M50.2046,-251.864C50.2046,-239.117 50.2046,-224.63 50.2046,-211.167"/>
<polygon fill="black" stroke="black" points="53.7047,-211.117 50.2046,-201.117 46.7047,-211.117 53.7047,-211.117"/>
<text text-anchor="middle" x="112.205" y="-222.707" font-family="Times,serif" font-size="14.00"> &#45; inflow + der inflow </text>
</g>
<!-- I(0,0)
V(0,0)
O(0,0) -->
<g id="node8" class="node"><title>I(0,0)
V(0,0)
O(0,0)</title>
<ellipse fill="none" stroke="black" cx="50.2046" cy="-37.4767" rx="37.4533" ry="37.4533"/>
<text text-anchor="middle" x="50.2046" y="-48.7767" font-family="Times,serif" font-size="14.00">I(0,0)</text>
<text text-anchor="middle" x="50.2046" y="-33.7767" font-family="Times,serif" font-size="14.00">V(0,0)</text>
<text text-anchor="middle" x="50.2046" y="-18.7767" font-family="Times,serif" font-size="14.00">O(0,0)</text>
</g>
<!-- I(0,0)
V(+,&#45;)
O(+,&#45;)&#45;&gt;I(0,0)
V(0,0)
O(0,0) -->
<g id="edge7" class="edge"><title>I(0,0)
V(+,&#45;)
O(+,&#45;)&#45;&gt;I(0,0)
V(0,0)
O(0,0)</title>
<path fill="none" stroke="black" d="M50.2046,-125.91C50.2046,-113.163 50.2046,-98.6771 50.2046,-85.2139"/>
<polygon fill="black" stroke="black" points="53.7047,-85.1636 50.2046,-75.1636 46.7047,-85.1637 53.7047,-85.1636"/>
<text text-anchor="middle" x="189.205" y="-96.7533" font-family="Times,serif" font-size="14.00"> &#45; Volume &#160;&#45; outflow + der Volume + der outflow </text>
</g>
</g>
</svg>
