<?xml version="1.0" encoding="UTF-8" standalone="no"?>
<!DOCTYPE svg PUBLIC "-//W3C//DTD SVG 1.1//EN"
 "http://www.w3.org/Graphics/SVG/1.1/DTD/svg11.dtd">
<!-- Generated by graphviz version 2.38.0 (20140413.2041)
 -->
<!-- Title: %3 Pages: 1 -->
<svg width="277pt" height="587pt"
 viewBox="0.00 0.00 277.20 586.77" xmlns="http://www.w3.org/2000/svg" xmlns:xlink="http://www.w3.org/1999/xlink">
<g id="graph0" class="graph" transform="scale(1 1) rotate(0) translate(4 582.767)">
<title>%3</title>
<polygon fill="white" stroke="none" points="-4,4 -4,-582.767 273.205,-582.767 273.205,4 -4,4"/>
<!-- I(0,0)
V(0,0)
O(0,0) -->
<g id="node1" class="node"><title>I(0,0)
V(0,0)
O(0,0)</title>
<ellipse fill="none" stroke="black" cx="50.2046" cy="-541.29" rx="37.4533" ry="37.4533"/>
<text text-anchor="middle" x="50.2046" y="-552.59" font-family="Times,serif" font-size="14.00">I(0,0)</text>
<text text-anchor="middle" x="50.2046" y="-537.59" font-family="Times,serif" font-size="14.00">V(0,0)</text>
<text text-anchor="middle" x="50.2046" y="-522.59" font-family="Times,serif" font-size="14.00">O(0,0)</text>
</g>
<!-- I(0,+)
V(0,0)
O(0,0) -->
<g id="node2" class="node"><title>I(0,+)
V(0,0)
O(0,0)</title>
<ellipse fill="none" stroke="black" cx="50.2046" cy="-415.337" rx="37.4533" ry="37.4533"/>
<text text-anchor="middle" x="50.2046" y="-426.637" font-family="Times,serif" font-size="14.00">I(0,+)</text>
<text text-anchor="middle" x="50.2046" y="-411.637" font-family="Times,serif" font-size="14.00">V(0,0)</text>
<text text-anchor="middle" x="50.2046" y="-396.637" font-family="Times,serif" font-size="14.00">O(0,0)</text>
</g>
<!-- I(0,0)
V(0,0)
O(0,0)&#45;&gt;I(0,+)
V(0,0)
O(0,0) -->
<g id="edge1" class="edge"><title>I(0,0)
V(0,0)
O(0,0)&#45;&gt;I(0,+)
V(0,0)
O(0,0)</title>
<path fill="none" stroke="black" d="M50.2046,-503.77C50.2046,-491.023 50.2046,-476.537 50.2046,-463.074"/>
<polygon fill="black" stroke="black" points="53.7047,-463.024 50.2046,-453.024 46.7047,-463.024 53.7047,-463.024"/>
<text text-anchor="middle" x="88.2046" y="-474.613" font-family="Times,serif" font-size="14.00"> + der inflow </text>
</g>
<!-- I(+,+)
V(0,+)
O(0,+) -->
<g id="node3" class="node"><title>I(+,+)
V(0,+)
O(0,+)</title>
<ellipse fill="none" stroke="black" cx="50.2046" cy="-289.383" rx="38.3684" ry="37.4533"/>
<text text-anchor="middle" x="50.2046" y="-300.683" font-family="Times,serif" font-size="14.00">I(+,+)</text>
<text text-anchor="middle" x="50.2046" y="-285.683" font-family="Times,serif" font-size="14.00">V(0,+)</text>
<text text-anchor="middle" x="50.2046" y="-270.683" font-family="Times,serif" font-size="14.00">O(0,+)</text>
</g>
<!-- I(0,+)
V(0,0)
O(0,0)&#45;&gt;I(+,+)
V(0,+)
O(0,+) -->
<g id="edge2" class="edge"><title>I(0,+)
V(0,0)
O(0,0)&#45;&gt;I(+,+)
V(0,+)
O(0,+)</title>
<path fill="none" stroke="black" d="M50.2046,-377.817C50.2046,-365.07 50.2046,-350.584 50.2046,-337.121"/>
<polygon fill="black" stroke="black" points="53.7047,-337.07 50.2046,-327.07 46.7047,-337.07 53.7047,-337.07"/>
<text text-anchor="middle" x="159.705" y="-348.66" font-family="Times,serif" font-size="14.00"> + inflow + der Volume &#160;+ der outflow </text>
</g>
<!-- I(+,+)
V(+,+)
O(+,+) -->
<g id="node4" class="node"><title>I(+,+)
V(+,+)
O(+,+)</title>
<ellipse fill="none" stroke="black" cx="50.2046" cy="-163.43" rx="39.6962" ry="37.4533"/>
<text text-anchor="middle" x="50.2046" y="-174.73" font-family="Times,serif" font-size="14.00">I(+,+)</text>
<text text-anchor="middle" x="50.2046" y="-159.73" font-family="Times,serif" font-size="14.00">V(+,+)</text>
<text text-anchor="middle" x="50.2046" y="-144.73" font-family="Times,serif" font-size="14.00">O(+,+)</text>
</g>
<!-- I(+,+)
V(0,+)
O(0,+)&#45;&gt;I(+,+)
V(+,+)
O(+,+) -->
<g id="edge3" class="edge"><title>I(+,+)
V(0,+)
O(0,+)&#45;&gt;I(+,+)
V(+,+)
O(+,+)</title>
<path fill="none" stroke="black" d="M50.2046,-251.864C50.2046,-239.117 50.2046,-224.63 50.2046,-211.167"/>
<polygon fill="black" stroke="black" points="53.7047,-211.117 50.2046,-201.117 46.7047,-211.117 53.7047,-211.117"/>
<text text-anchor="middle" x="111.205" y="-222.707" font-family="Times,serif" font-size="14.00"> + Volume &#160;+ outflow</text>
</g>
<!-- I(+,+)
V(max,+)
O(max,+) -->
<g id="node5" class="node"><title>I(+,+)
V(max,+)
O(max,+)</title>
<ellipse fill="none" stroke="black" cx="50.2046" cy="-37.4767" rx="50.41" ry="37.4533"/>
<text text-anchor="middle" x="50.2046" y="-48.7767" font-family="Times,serif" font-size="14.00">I(+,+)</text>
<text text-anchor="middle" x="50.2046" y="-33.7767" font-family="Times,serif" font-size="14.00">V(max,+)</text>
<text text-anchor="middle" x="50.2046" y="-18.7767" font-family="Times,serif" font-size="14.00">O(max,+)</text>
</g>
<!-- I(+,+)
V(+,+)
O(+,+)&#45;&gt;I(+,+)
V(max,+)
O(max,+) -->
<g id="edge4" class="edge"><title>I(+,+)
V(+,+)
O(+,+)&#45;&gt;I(+,+)
V(max,+)
O(max,+)</title>
<path fill="none" stroke="black" d="M50.2046,-125.91C50.2046,-113.163 50.2046,-98.6771 50.2046,-85.2139"/>
<polygon fill="black" stroke="black" points="53.7047,-85.1636 50.2046,-75.1636 46.7047,-85.1637 53.7047,-85.1636"/>
<text text-anchor="middle" x="111.205" y="-96.7533" font-family="Times,serif" font-size="14.00"> + Volume &#160;+ outflow</text>
</g>
</g>
</svg>
